<svg id="Group_10" data-name="Group 10" xmlns="http://www.w3.org/2000/svg" width="311.828" height="311.828" viewBox="0 0 311.828 311.828">
  <path id="Frames-24px" d="M0,0H311.828V311.828H0Z" fill="none"/>
  <path id="Solid" d="M235.871,2H27.986A25.986,25.986,0,0,0,2,27.986V183.9a25.986,25.986,0,0,0,25.986,25.986H40.979v51.971L92.95,209.886H235.871A25.986,25.986,0,0,0,261.857,183.9V27.986A25.986,25.986,0,0,0,235.871,2ZM170.907,50.723a16.254,16.254,0,1,1-15.6,16.241A16.254,16.254,0,0,1,170.907,50.723Zm-77.957,0a16.254,16.254,0,0,1,0,32.482,16.254,16.254,0,0,1,0-32.482Zm38.979,107.191a64.925,64.925,0,0,1-59.481-38.979H191.41a64.925,64.925,0,0,1-59.481,38.979Z" transform="translate(23.986 23.986)" fill="#fff"/>
</svg>
